<svg fill="#fff" xmlns="http://www.w3.org/2000/svg" viewBox="0 0 511.999 511.999"><path d="M494.05 152.765c-4.349-6.962-9.899-10.906-16.493-11.716-10.518-1.298-22.144 5.266-40.137 22.636a7.499 7.499 0 00-.187 10.604 7.502 7.502 0 0010.605.187c13.395-12.93 22.779-19.162 27.888-18.539.702.086 2.837.349 5.602 4.775 3.793 6.076-12.46 24.53-25.521 39.358-19.573 22.223-41.757 47.41-46.229 74.623-6.433 39.139-54.167 87.209-54.647 87.688a7.5 7.5 0 00-1.33 8.819l8.354 15.769-57.859 57.859c-10.77-22.981-27.509-62.466-27.574-85.97 1.024-30.281 41.552-82.126 80.775-132.298 13.805-17.658 25.161-22.754 31.19-21.616 2.153.402 3.566 1.669 4.199 3.765 1.006 3.33-.007 9.35-6.176 15.355-26.207 25.516-39.939 69.978-40.512 71.857a7.499 7.499 0 004.991 9.355 7.498 7.498 0 009.359-4.987c.13-.425 13.214-42.684 36.625-65.478 5.427-5.284 8.977-11.518 10.374-17.764.772-.813 1.553-1.627 2.309-2.438l4.997-5.389c3.569-3.85 7.003-7.554 10.305-11.103a7.5 7.5 0 00-10.982-10.219c-3.144 3.38-6.411 6.903-9.796 10.553-2.989-4.281-7.522-7.241-12.936-8.254-8.001-1.499-24.59.033-45.767 27.122-42.197 53.976-82.119 105.045-83.915 140.294-.145 1.345-.167 2.859.032 4.174 1.278 27.552 19.021 68.859 31.235 94.302l-11.504 11.504a7.5 7.5 0 000 10.608l31.6 31.6c1.464 1.464 3.384 2.196 5.303 2.196s3.839-.732 5.303-2.196l14.7-14.7a7.5 7.5 0 00-10.606-10.607l-9.397 9.397-20.991-20.991 79.152-79.151c.07-.067.138-.135.205-.205l17.061-17.061 20.993 20.992-63.498 63.498a7.5 7.5 0 0010.606 10.607l68.801-68.802a7.5 7.5 0 000-10.608l-31.599-31.599a7.501 7.501 0 00-10.606 0l-15.3 15.3-3.651-6.892c12.194-12.968 48.848-54.551 54.979-91.855 3.773-22.964 24.445-46.434 42.683-67.142 9.069-10.298 17.636-20.023 23.114-28.696 2.697-4.269 10.904-17.261 3.873-28.521z"/><path d="M401.655 391.901l-4.192-4.192a7.501 7.501 0 00-10.606 10.607l4.192 4.192c1.464 1.464 3.384 2.196 5.303 2.196s3.839-.732 5.303-2.196a7.5 7.5 0 000-10.607zm-151.221-34.285c-1.796-35.249-41.718-86.319-83.915-140.294-21.177-27.088-37.766-28.622-45.767-27.122-5.414 1.013-9.948 3.973-12.937 8.255l-.348-.375c-33.994-36.666-54.506-58.79-72.473-57.092-6.836.649-12.571 4.613-17.046 11.781-7.03 11.263 1.179 24.257 3.877 28.527 5.48 8.676 14.049 18.404 23.122 28.705 5.314 6.034 10.811 12.274 16.074 18.722a7.483 7.483 0 005.814 2.757 7.5 7.5 0 005.805-12.243c-5.441-6.664-11.031-13.012-16.437-19.149-13.065-14.834-29.325-33.296-25.531-39.375 2.818-4.514 4.942-4.716 5.741-4.792 10.607-.972 33.508 23.725 60.054 52.357l5.885 6.344c.748.803 1.529 1.616 2.298 2.426 1.398 6.246 4.947 12.48 10.374 17.764 23.412 22.794 36.496 65.053 36.625 65.478a7.5 7.5 0 0014.35-4.368c-.572-1.88-14.305-46.342-40.512-71.857-6.169-6.006-7.183-12.025-6.176-15.355.633-2.096 2.046-3.362 4.199-3.765 6.029-1.135 17.386 3.958 31.19 21.616 39.223 50.171 79.751 102.016 80.775 132.298-.064 23.504-16.804 62.989-27.574 85.97l-57.859-57.859 8.354-15.769a7.504 7.504 0 00-1.328-8.818c-.481-.48-48.215-48.551-54.648-87.687-1.414-8.62-4.667-17.459-9.945-27.021a7.5 7.5 0 10-13.131 7.248c4.436 8.037 7.143 15.299 8.275 22.203 6.132 37.304 42.786 78.887 54.979 91.854l-3.651 6.892-15.3-15.3a7.501 7.501 0 00-10.606 0l-31.599 31.599a7.5 7.5 0 000 10.608l107.024 107.024a7.5 7.5 0 0010.606 0l31.6-31.6a7.5 7.5 0 000-10.608l-11.504-11.504c12.214-25.443 29.957-66.75 31.235-94.302.048-.331.085-.667.091-1.013.016-1.025.05-2.131-.06-3.16zm-56.666 136.278l-96.417-96.418 20.993-20.992 17.061 17.061c.067.07.135.137.205.205l79.152 79.151-20.994 20.993z"/><path d="M125.141 387.708a7.501 7.501 0 00-10.606 0l-4.192 4.192a7.5 7.5 0 0010.606 10.607l4.192-4.192a7.5 7.5 0 000-10.607zM278.226 19.121L261.302 2.196a7.5 7.5 0 00-10.606 0l-16.924 16.925a7.5 7.5 0 0010.606 10.606l4.121-4.121v235.021c0 4.143 3.358 7.5 7.5 7.5s7.5-3.357 7.5-7.5V25.606l4.121 4.121c1.464 1.465 3.384 2.197 5.303 2.197s3.839-.732 5.303-2.196a7.5 7.5 0 000-10.607zm-57.5 161.373l-74.331-74.33V71.326l4.122 4.122a7.501 7.501 0 0010.606-10.607l-16.925-16.925a7.5 7.5 0 00-10.606.001l-16.924 16.924a7.5 7.5 0 0010.606 10.608l4.121-4.121v37.942c0 1.989.79 3.896 2.197 5.304l74.331 74.33v19.642a7.5 7.5 0 007.5 7.5 7.5 7.5 0 007.5-7.5v-22.748c0-1.989-.79-3.896-2.197-5.304zM395.33 64.841l-16.924-16.924a7.497 7.497 0 00-10.606-.001l-16.925 16.925a7.5 7.5 0 0010.606 10.607l4.122-4.122v45.117h-61.03a7.5 7.5 0 00-7.5 7.5v84.601a7.5 7.5 0 007.5 7.5 7.5 7.5 0 007.5-7.5v-77.101h61.03a7.5 7.5 0 007.5-7.5V71.327l4.121 4.121c1.464 1.464 3.384 2.196 5.303 2.196s3.839-.732 5.303-2.196a7.5 7.5 0 000-10.607z"/></svg>