<svg fill="#fff" xmlns="http://www.w3.org/2000/svg" viewBox="0 0 480 480"><path d="M383.384 4.944A8.002 8.002 0 00376 0h-40a8 8 0 000 16h20.688l-50.496 50.496L279.2 12.424A8 8 0 00272.256 8a7.912 7.912 0 00-7.2 4L214.32 99.008l-40.664-40.664a8 8 0 00-11.312 0l-64 64a8 8 0 1011.312 11.312L168 75.312l42.344 42.344a8.142 8.142 0 006.68 2.28 8.001 8.001 0 005.888-3.904L271.456 32.8 296.8 83.576a7.999 7.999 0 005.88 4.32 7.902 7.902 0 006.936-2.24L368 27.312V48a8 8 0 0016 0V8a8.075 8.075 0 00-.616-3.056zM160 136h-32a8 8 0 00-8 8v112a8 8 0 008 8h32a8 8 0 008-8V144a8 8 0 00-8-8zm-8 112h-16v-96h16v96zm72-96h-32a8 8 0 00-8 8v96a8 8 0 008 8h32a8 8 0 008-8v-96a8 8 0 00-8-8zm-8 96h-16v-80h16v80zm72-56h-32a8 8 0 00-8 8v56a8 8 0 008 8h32a8 8 0 008-8v-56a8 8 0 00-8-8zm-8 56h-16v-40h16v40zm72-32h-32a8 8 0 00-8 8v32a8 8 0 008 8h32a8 8 0 008-8v-32a8 8 0 00-8-8zm-8 32h-16v-16h16v16z"/><path d="M232 15.344A8.027 8.027 0 00223.344 8C122.326 16.941 43.78 99.716 40.144 201.064 25.975 204.652 16.039 217.384 16 232v66.28a153.241 153.241 0 0068.232 127.488L112 444.28V472a8 8 0 0016 0v-32a8 8 0 00-3.56-6.656l-31.336-20.888A137.2 137.2 0 0132 298.28V232c0-8.837 7.163-16 16-16s16 7.163 16 16v43.056A31.726 31.726 0 0056 296v32a8 8 0 0016 0v-32c0-8.837 7.163-16 16-16s16 7.163 16 16v40a8 8 0 004 6.944l38.544 22.024A58.402 58.402 0 01176 415.672V472a8 8 0 0016 0v-56.328a74.4 74.4 0 00-37.488-64.592L120 331.36V296c0-17.673-14.327-32-32-32a31.543 31.543 0 00-8 1.136V232c-.046-14.432-9.761-27.043-23.704-30.768C59.771 108.184 131.909 32.244 224.656 24A8.027 8.027 0 00232 15.344zm207.728 185.712a200.405 200.405 0 00-43.6-118.72 8.001 8.001 0 00-12.48 10.016 181.684 181.684 0 0140.096 108.864C409.779 204.928 400.043 217.55 400 232v33.136a31.543 31.543 0 00-8-1.136c-17.673 0-32 14.327-32 32v35.36l-34.52 19.72A74.398 74.398 0 00288 415.672V472a8 8 0 0016 0v-56.328a58.4 58.4 0 0129.424-50.704L372 342.944a8 8 0 004-6.944v-40c0-8.837 7.163-16 16-16s16 7.163 16 16v32a8 8 0 0016 0v-32a31.726 31.726 0 00-8-20.944V232c0-8.837 7.163-16 16-16s16 7.163 16 16v66.28a137.2 137.2 0 01-61.104 114.176l-31.336 20.888A8 8 0 00352 440v32a8 8 0 0016 0v-27.72l27.768-18.512A153.241 153.241 0 00464 298.28V232c-.05-14.656-10.05-27.405-24.272-30.944z"/><path d="M367.24 142.896A24.918 24.918 0 00352 136.2v-14.456l14.144 3.376 3.712-15.568L352 105.296V88h-16v16h-5.84a25.09 25.09 0 00-17.392 6.888c-9.448 8.869-9.918 23.718-1.049 33.167.339.361.689.711 1.049 1.049A25.1 25.1 0 00330.16 152H336v15.944a9.134 9.134 0 01-1.752-.2l-20.392-4.864-3.712 15.568 20.424 4.864c1.783.401 3.604.613 5.432.632V200h16v-16.2a24.913 24.913 0 0015.2-6.688A23.474 23.474 0 00374.64 160a23.466 23.466 0 00-7.4-17.104zM336 136h-5.84a9.257 9.257 0 01-6.4-2.488 7.456 7.456 0 010-11.032 9.284 9.284 0 016.4-2.48H336v16zm20.699 29.005a7.577 7.577 0 01-.499.499v.016a8.968 8.968 0 01-4.2 2.072v-15.2a8.972 8.972 0 014.2 2.08 7.456 7.456 0 01.499 10.533z"/></svg>