<svg fill="#fff" xmlns="http://www.w3.org/2000/svg" viewBox="0 0 512 512"><path d="M511.918 226.455a15.08 15.08 0 00-5.891-10.444L465.47 185.29l14.756-48.69a15.08 15.08 0 00-11.001-19.056l-49.548-11.569-6.325-50.482a15.077 15.077 0 00-17.8-12.934l-49.968 9.584L319.27 8.598a15.079 15.079 0 00-21.522-4.575L256 33.103l-41.749-29.08a15.08 15.08 0 00-21.523 4.576l-26.311 43.546-49.968-9.584a15.079 15.079 0 00-17.801 12.934l-6.325 50.482-49.548 11.569a15.08 15.08 0 00-11.002 19.055l14.754 48.691-40.553 30.72a15.078 15.078 0 00-2.299 21.883l33.281 38.481-24.554 44.56a15.079 15.079 0 006.8 20.926l46.056 21.616-4.309 50.696a15.078 15.078 0 0014.723 16.353l50.87 1.014 16.681 48.064a15.078 15.078 0 0020.101 8.951l46.885-19.763L245 505.917a15.076 15.076 0 0022.004 0l34.791-37.124 46.882 19.763a15.09 15.09 0 0011.99-.12 15.07 15.07 0 008.111-8.83l16.684-48.065 50.867-1.014a15.076 15.076 0 0014.724-16.353l-4.309-50.696 46.059-21.616a15.08 15.08 0 006.799-20.927l-24.557-44.559 33.284-38.481a15.092 15.092 0 003.589-11.44zm-68.356 55.278l21.86 39.667-41.001 19.242a15.08 15.08 0 00-8.617 14.927l3.836 45.128-45.282.903a15.079 15.079 0 00-13.944 10.13l-14.852 42.788-41.734-17.594a15.076 15.076 0 00-16.858 3.583L256 473.553l-30.97-33.047a15.075 15.075 0 00-16.859-3.584l-41.736 17.594-14.85-42.787a15.076 15.076 0 00-13.944-10.131l-45.285-.903 3.836-45.128a15.08 15.08 0 00-8.617-14.927l-40.998-19.243 21.858-39.668a15.081 15.081 0 00-1.801-17.141l-29.627-34.255 36.102-27.347a15.078 15.078 0 005.326-16.392l-13.134-43.345 44.107-10.298a15.081 15.081 0 0011.533-12.809l5.63-44.938 44.481 8.531a15.076 15.076 0 0015.745-7.011l23.422-38.763 37.165 25.886a15.078 15.078 0 0017.235 0l37.163-25.886 23.424 38.764a15.074 15.074 0 0015.745 7.01l44.481-8.531 5.63 44.938a15.08 15.08 0 0011.533 12.809l44.107 10.298-13.136 43.344a15.078 15.078 0 005.325 16.393l36.104 27.347-29.629 34.255a15.08 15.08 0 00-1.804 17.145z"/><path d="M256 111.722c-79.556 0-144.278 64.723-144.278 144.277S176.446 400.277 256 400.277 400.278 335.554 400.278 256 335.555 111.722 256 111.722zm0 258.4c-62.927 0-114.122-51.195-114.122-114.122S193.073 141.878 256 141.878 370.122 193.073 370.122 256 318.927 370.122 256 370.122z"/><path d="M315.114 213.039c-5.89-5.889-15.437-5.889-21.325 0l-53.938 53.937-21.639-21.638c-5.888-5.889-15.435-5.887-21.323 0-5.887 5.888-5.887 15.435.001 21.323l32.301 32.3a15.03 15.03 0 0010.661 4.416c3.859 0 7.718-1.473 10.661-4.416l64.6-64.599c5.888-5.887 5.888-15.435.001-21.323z"/></svg>