<svg xmlns="http://www.w3.org/2000/svg" viewBox="0 0 612 612"><path d="M588.289 122.599L464.794 86.84v476.859c0 2.383-.139 4.73-.394 7.046 15.14 1.494 29.669-7.932 34.052-23.076L610.264 162.48c4.947-17.079-4.891-34.939-21.975-39.881zm-406.261 17.272c-13.195 5.757-24.998 14.107-34.787 24.4h23.845c3.09-9.107 6.771-17.29 10.942-24.4zm-16.778 45.9h-33.881c-6.971 12.444-11.54 26.404-13.032 41.266h41.985c.559-14.71 2.249-28.575 4.928-41.266zm136.661-21.5c-9.789-10.291-21.59-18.641-34.785-24.398 4.171 7.108 7.852 15.291 10.942 24.398h23.843zm-154.672 147.03c9.789 10.293 21.592 18.643 34.787 24.4-4.171-7.11-7.852-15.293-10.942-24.4h-23.845zm120.075-84.265c-.665-15.034-2.694-28.955-5.683-41.266h-74.109c-2.99 12.311-5.02 26.233-5.683 41.266h85.475zm-42.74-96.034c-10.626 0-21.908 12.548-30.247 33.267h60.499c-8.341-20.719-19.622-33.267-30.252-33.267zM160.32 248.536h-41.984c1.492 14.862 6.061 28.824 13.032 41.266h33.881c-2.678-12.691-4.368-26.557-4.929-41.266zm128.514-21.5h41.982c-1.492-14.862-6.061-28.824-13.032-41.266h-33.879c2.677 12.692 4.37 26.557 4.929 41.266zm-64.26 117.535c10.628 0 21.911-12.548 30.251-33.267h-60.499c8.34 20.719 19.622 33.267 30.248 33.267zm59.33-54.769h33.879c6.971-12.444 11.54-26.404 13.032-41.266h-41.982c-.558 14.709-2.251 28.575-4.929 41.266zM113.042 437.134H94.607v35.093h18.435c14.587 0 21.982-6.002 21.982-17.842 0-11.448-7.394-17.251-21.982-17.251zm59.403 38.289h25.466l-12.858-27.792z"/><path d="M400.395 0H48.759C22.126 0 .457 21.668.457 48.302v515.397C.457 590.332 22.126 612 48.759 612h351.636c26.633 0 48.3-21.668 48.3-48.302V48.302C448.694 21.668 427.028 0 400.395 0zM224.574 109.502c70.735 0 128.282 57.547 128.282 128.282s-57.547 128.284-128.282 128.284c-70.733 0-128.278-57.547-128.278-128.284 0-70.732 57.545-128.282 128.278-128.282zM94.607 489.079v20.354a8.05 8.05 0 01-8.05 8.05H85.8a8.05 8.05 0 01-8.05-8.05v-81.112a8.05 8.05 0 018.05-8.05h27.243c23.957 0 38.84 13.072 38.84 34.112 0 21.402-14.883 34.695-38.84 34.695H94.607v.001zm135.548 24.686a8.052 8.052 0 01-6.785 3.718h-.943a8.05 8.05 0 01-7.312-4.685l-9.444-20.525h-40.874l-9.33 20.494a8.05 8.05 0 01-7.326 4.714h-1.069a8.053 8.053 0 01-6.775-3.7 8.054 8.054 0 01-.545-7.701l37.132-81.112a8.051 8.051 0 017.32-4.698h1.573a8.05 8.05 0 017.304 4.665l37.595 81.112a8.059 8.059 0 01-.521 7.718zm35.781 3.718c-11.85 0-24.392-5.002-32.732-13.054a8.051 8.051 0 01-.096-11.487l.51-.51a8.049 8.049 0 0111.366-.006c4.93 4.906 13.35 8.203 20.953 8.203 8.505 0 18.435-2.749 18.435-10.497.065-7.467-4.449-10.022-18.978-14.43-12.874-3.89-30.487-9.216-30.487-29.838 0-15.307 13.517-25.59 33.634-25.59 8.658 0 18.26 2.547 25.059 6.65a8.05 8.05 0 012.677 11.144l-.329.529a8.05 8.05 0 01-10.969 2.655c-4.114-2.463-10.72-4.116-16.437-4.116-7.738 0-16.776 2.286-16.776 8.728 0 6.975 4.428 9.43 18.654 13.732 13.081 3.955 30.973 9.363 30.812 30.59.001 16.302-14.185 27.297-35.296 27.297zm70.176 0c-11.852 0-24.396-5.002-32.734-13.056a8.04 8.04 0 01-2.457-5.716 8.056 8.056 0 012.351-5.761l.508-.508a8.05 8.05 0 0111.377-.018c4.93 4.906 13.352 8.203 20.956 8.203 8.503 0 18.431-2.749 18.431-10.497.061-7.467-4.451-10.022-18.978-14.43-12.874-3.892-30.487-9.22-30.487-29.837 0-15.307 13.519-25.59 33.636-25.59 8.657 0 18.26 2.547 25.061 6.65a8.046 8.046 0 012.655 11.179l-.333.529a8.053 8.053 0 01-10.948 2.62c-4.112-2.461-10.716-4.116-16.435-4.116-7.742 0-16.78 2.286-16.78 8.728 0 6.975 4.43 9.43 18.654 13.732 13.083 3.955 30.975 9.363 30.81 30.59.001 16.303-14.18 27.298-35.287 27.298z"/><path d="M181.839 248.536c.665 15.034 2.694 28.957 5.683 41.266h74.109c2.988-12.311 5.018-26.231 5.683-41.266h-85.475zm85.287 87.163c13.195-5.757 24.998-14.107 34.785-24.398h-23.843c-3.09 9.107-6.771 17.288-10.942 24.398z"/></svg>