<svg fill="#fff" xmlns="http://www.w3.org/2000/svg" viewBox="0 0 512 512"><path d="M401.777 137.141H110.223c-4.146 0-7.506 3.36-7.506 7.506s3.36 7.506 7.506 7.506h291.554c4.146 0 7.506-3.36 7.506-7.506s-3.36-7.506-7.506-7.506zm0 81.728H110.223a7.506 7.506 0 100 15.012h291.554c4.146 0 7.506-3.36 7.506-7.506s-3.36-7.506-7.506-7.506zm-95.584 53.04H205.807a7.506 7.506 0 100 15.012h100.386a7.505 7.505 0 007.506-7.506 7.505 7.505 0 00-7.506-7.506zm95.584-94.071H184.303a7.506 7.506 0 100 15.012h217.474c4.146 0 7.506-3.36 7.506-7.506s-3.36-7.506-7.506-7.506zm-252.396-.001h-39.158c-4.146 0-7.506 3.36-7.506 7.506s3.36 7.506 7.506 7.506h39.158a7.506 7.506 0 100-15.012z"/><path d="M473.251 124.455a9.241 9.241 0 00-6.522-2.659h-.005c-15.213 0-27.664-11.892-28.349-27.078-.225-4.938-4.283-8.805-9.238-8.805H81.077a9.223 9.223 0 00-9.239 8.81c-.653 14.511-12.532 26.391-27.044 27.044-4.94.222-8.809 4.281-8.809 9.239v194.021c0 4.958 3.869 9.016 8.809 9.238 14.512.654 26.391 12.533 27.044 27.049.225 4.938 4.284 8.805 9.239 8.805h221.577a7.506 7.506 0 100-15.012H86.239a43.07 43.07 0 00-35.243-35.244V136.167a43.072 43.072 0 0035.243-35.243h337.739c3.23 18.65 18.245 33.046 37.026 35.51v127.469a7.506 7.506 0 1015.012 0V131.048a9.176 9.176 0 00-2.765-6.593z"/><path d="M491.165 48.445H20.835C9.347 48.445 0 57.792 0 69.28v317.47c0 11.489 9.347 20.835 20.835 20.835h315.048l-11.154 23.373a8.89 8.89 0 00.908 9.182 8.898 8.898 0 008.553 3.461l20.766-3.338 11.583 19.013a8.904 8.904 0 008.066 4.266 8.908 8.908 0 007.594-5.064l20.126-42.173 20.124 42.17a8.908 8.908 0 008.051 5.08 8.905 8.905 0 007.611-4.277l11.583-19.013 20.766 3.339a8.89 8.89 0 008.555-3.465 8.884 8.884 0 00.905-9.178l-11.154-23.373h22.399c11.488 0 20.835-9.346 20.835-20.835V69.28c0-11.488-9.347-20.835-20.835-20.835zM373.501 441.85l-7.857-12.895a8.88 8.88 0 00-9.028-4.163l-13.334 2.144 14.046-29.432c5.536 5.649 13.423 8.701 21.61 7.93a11.718 11.718 0 017.898 2.115 26.619 26.619 0 002.336 1.465l-15.671 32.836zm30.614-44.508l-.07.009a11.79 11.79 0 01-3.433.001l-.086-.011a11.701 11.701 0 01-4.995-2.027 26.739 26.739 0 00-18.009-4.825 11.728 11.728 0 01-11.764-6.792 26.723 26.723 0 00-3.46-5.577c-.06-.085-.126-.165-.189-.247-.076-.092-.147-.187-.223-.278a6.883 6.883 0 00-.271-.296 26.714 26.714 0 00-9.042-6.786 11.731 11.731 0 01-6.792-11.765 26.744 26.744 0 00-4.825-18.009 11.732 11.732 0 01-.001-13.585 26.74 26.74 0 004.826-18.009 11.733 11.733 0 016.792-11.765 26.736 26.736 0 0013.184-13.184 11.74 11.74 0 0111.765-6.792 26.743 26.743 0 0018.01-4.826 11.734 11.734 0 0113.585 0 26.769 26.769 0 0018.01 4.826 11.728 11.728 0 0111.766 6.792 26.732 26.732 0 0013.183 13.183 11.734 11.734 0 016.793 11.765 26.741 26.741 0 004.825 18.009 11.73 11.73 0 010 13.585 26.747 26.747 0 00-4.825 18.009 11.733 11.733 0 01-6.794 11.766 26.723 26.723 0 00-9.024 6.768 6.92 6.92 0 00-.296.324c-.065.078-.126.159-.191.238-.075.096-.151.19-.221.289a26.691 26.691 0 00-3.45 5.565 11.733 11.733 0 01-11.766 6.792 26.776 26.776 0 00-18.01 4.825 11.7 11.7 0 01-5.002 2.028zm43.918 27.449a8.884 8.884 0 00-9.028 4.165l-7.856 12.895-15.671-32.837c.795-.45 1.579-.927 2.336-1.465a11.709 11.709 0 017.898-2.116c8.19.772 16.075-2.28 21.611-7.929l14.045 29.431-13.335-2.144zm48.956-38.04a5.83 5.83 0 01-5.824 5.824h-29.563l-3.87-8.11c.195-.103.389-.211.591-.303 10.336-4.731 16.561-15.513 15.49-26.829-.265-2.8.486-5.605 2.116-7.898 6.586-9.265 6.586-21.715-.001-30.98a11.727 11.727 0 01-2.115-7.897c1.071-11.316-5.154-22.098-15.491-26.829a11.734 11.734 0 01-5.781-5.781c-4.73-10.337-15.517-16.56-26.83-15.49a11.71 11.71 0 01-7.897-2.116c-9.265-6.586-21.716-6.587-30.98 0a11.719 11.719 0 01-7.897 2.115c-11.33-1.066-22.1 5.154-26.829 15.49a11.728 11.728 0 01-5.782 5.781c-10.336 4.731-16.561 15.512-15.49 26.829a11.727 11.727 0 01-2.116 7.898c-6.586 9.265-6.586 21.715 0 30.979a11.725 11.725 0 012.116 7.898c-1.071 11.317 5.154 22.099 15.49 26.829.202.092.395.2.59.303l-3.87 8.111H20.835a5.83 5.83 0 01-5.824-5.824V69.28a5.83 5.83 0 015.824-5.824h470.33a5.831 5.831 0 015.824 5.824v317.471z"/><path d="M401.777 287.312c-25.714 0-46.634 20.92-46.634 46.633 0 25.714 20.92 46.634 46.634 46.634s46.633-20.921 46.633-46.634c0-25.714-20.919-46.633-46.633-46.633zm0 78.255c-17.437 0-31.623-14.186-31.623-31.623 0-17.436 14.186-31.622 31.623-31.622 17.436 0 31.622 14.186 31.622 31.622 0 17.437-14.186 31.623-31.622 31.623z"/></svg>